Coordinates
version=1
nRows=33
nColumns=38
inDegrees=no

Units are S.I. units (second, meters, Newtons, ...)
If the header above contains a line with 'inDegrees', this indicates whether rotational values are in degrees (yes) or radians (no).

endheader
time	pelvis_tilt	pelvis_list	pelvis_rotation	pelvis_tx	pelvis_ty	pelvis_tz	hip_flexion_r	hip_adduction_r	hip_rotation_r	knee_angle_r	ankle_angle_r	subtalar_angle_r	mtp_angle_r	hip_flexion_l	hip_adduction_l	hip_rotation_l	knee_angle_l	ankle_angle_l	subtalar_angle_l	mtp_angle_l	lumbar_extension	lumbar_bending	lumbar_rotation	arm_flex_r	arm_add_r	arm_rot_r	elbow_flex_r	pro_sup_r	wrist_flex_r	wrist_dev_r	arm_flex_l	arm_add_l	arm_rot_l	elbow_flex_l	pro_sup_l	wrist_flex_l	wrist_dev_l
0.48	-0.458134	1.45923	-1.02417	0.950096	0.847684	0.935872	0.266305	0.0374068	-0.257016	0.197993	0.0430229	0	0	-0.353603	-0.102502	-0.0982884	0.4432	0.179131	0	0	-0.173518	0.0702786	-0.273443	-0.222694	-0.0544106	-0.582891	0.306648	1.28943	0	0	-0.116327	-0.382322	0.65506	0.626732	0.605437	0	0
0.49	-0.515227	1.45878	-0.964208	0.94806	0.835703	0.936042	0.256073	0.047442	-0.256208	0.188642	0.00392324	0	0	-0.33376	-0.11955	-0.106809	0.493195	0.161242	0	0	-0.165051	0.0766862	-0.271043	-0.231908	-0.0554249	-0.586961	0.30582	1.28718	0	0	-0.118304	-0.378692	0.65761	0.622956	0.605614	0	0
0.5	-0.590265	1.45632	-0.889852	0.945857	0.82415	0.936588	0.251092	0.0585338	-0.256575	0.191589	-0.0205222	0	0	-0.310342	-0.138389	-0.115429	0.548016	0.137352	0	0	-0.158372	0.0865587	-0.264179	-0.239381	-0.0575599	-0.591212	0.304195	1.28397	0	0	-0.118108	-0.373318	0.660181	0.618491	0.605811	0	0
0.51	-0.666309	1.45315	-0.816635	0.943769	0.812908	0.937312	0.251923	0.0676932	-0.261426	0.209113	-0.0226138	0	0	-0.283234	-0.156272	-0.120577	0.606691	0.107475	0	0	-0.152578	0.0977914	-0.254639	-0.245238	-0.0606924	-0.596331	0.300581	1.27988	0	0	-0.116535	-0.366776	0.663569	0.614005	0.605414	0	0
0.52	-0.742901	1.45178	-0.743914	0.941844	0.80184	0.937846	0.258795	0.0732234	-0.271703	0.236735	-0.0125914	0	0	-0.250254	-0.171487	-0.120908	0.669463	0.0720561	0	0	-0.144612	0.108067	-0.244195	-0.250258	-0.0640904	-0.606636	0.294902	1.27456	0	0	-0.115227	-0.360381	0.668951	0.611344	0.601402	0	0
0.53	-0.793005	1.44867	-0.69723	0.940068	0.790869	0.938605	0.258946	0.0782695	-0.280785	0.257663	-0.00712157	0	0	-0.218929	-0.184106	-0.115353	0.731757	0.0333469	0	0	-0.140232	0.117368	-0.234613	-0.255056	-0.0673672	-0.615486	0.290259	1.27199	0	0	-0.114569	-0.355641	0.674566	0.613194	0.594518	0	0
0.54	-0.839225	1.44499	-0.65404	0.938235	0.780086	0.939308	0.254741	0.0851712	-0.287541	0.269427	-0.00841263	0	0	-0.18538	-0.196527	-0.107448	0.79526	-0.00808624	0	0	-0.136508	0.126519	-0.22565	-0.259365	-0.0701451	-0.624393	0.285909	1.27061	0	0	-0.114145	-0.352393	0.681446	0.617889	0.586238	0	0
0.55	-0.886213	1.44128	-0.609711	0.936287	0.769643	0.939862	0.247349	0.094297	-0.291126	0.27222	-0.0119272	0	0	-0.148891	-0.208792	-0.0968747	0.859855	-0.0512651	0	0	-0.132887	0.135383	-0.21726	-0.26388	-0.0719351	-0.632982	0.284351	1.26934	0	0	-0.113265	-0.350291	0.689255	0.623886	0.577077	0	0
0.56	-0.930015	1.43807	-0.56881	0.934187	0.759505	0.94029	0.237678	0.104715	-0.291415	0.268447	-0.0142341	0	0	-0.110771	-0.219811	-0.0853015	0.923405	-0.0954333	0	0	-0.129296	0.142849	-0.209458	-0.268497	-0.072912	-0.639192	0.28521	1.26733	0	0	-0.112562	-0.349088	0.695914	0.63017	0.569683	0	0
0.57	-0.965319	1.43531	-0.536171	0.932073	0.749644	0.940732	0.225955	0.115475	-0.288775	0.260665	-0.0150726	0	0	-0.0726632	-0.228925	-0.0728763	0.983961	-0.139748	0	0	-0.126495	0.148778	-0.20212	-0.273268	-0.0728242	-0.644686	0.288451	1.2638	0	0	-0.110762	-0.348496	0.704477	0.634805	0.56052	0	0
0.58	-0.978499	1.43311	-0.525271	0.930076	0.74006	0.941449	0.212014	0.124304	-0.284969	0.252915	-0.0147562	0	0	-0.037519	-0.234427	-0.0598793	1.03909	-0.184554	0	0	-0.126482	0.152045	-0.195706	-0.276723	-0.0723489	-0.647362	0.291188	1.25992	0	0	-0.108479	-0.348025	0.710254	0.638384	0.556531	0	0
0.59	-0.975804	1.43083	-0.529993	0.928197	0.730619	0.942505	0.195706	0.132185	-0.279797	0.244585	-0.0149076	0	0	-0.00576023	-0.237355	-0.0467516	1.08824	-0.231465	0	0	-0.128652	0.153917	-0.189636	-0.279046	-0.0716266	-0.649618	0.292899	1.25452	0	0	-0.105754	-0.347714	0.715152	0.641651	0.553844	0	0
0.6	-0.958733	1.42881	-0.549151	0.926419	0.721335	0.943888	0.177792	0.138386	-0.273478	0.23701	-0.0147523	0	0	0.0223063	-0.236871	-0.0332899	1.13201	-0.27513	0	0	-0.132797	0.154268	-0.183789	-0.279629	-0.0708868	-0.652089	0.29198	1.24874	0	0	-0.102308	-0.346629	0.718447	0.64293	0.552971	0	0
0.61	-0.93245	1.42749	-0.577715	0.924724	0.712208	0.945485	0.158949	0.142652	-0.266341	0.229777	-0.013607	0	0	0.0481149	-0.232953	-0.0192748	1.17342	-0.299531	0	0	-0.137911	0.153048	-0.178256	-0.27905	-0.0702063	-0.65496	0.289181	1.24285	0	0	-0.098725	-0.344773	0.719959	0.642715	0.553641	0	0
0.62	-0.900465	1.42682	-0.612581	0.92303	0.703176	0.947216	0.139372	0.145222	-0.259053	0.222222	-0.0119406	0	0	0.0726184	-0.227702	-0.00733186	1.21296	-0.300103	0	0	-0.143378	0.150432	-0.172533	-0.277918	-0.0695631	-0.658389	0.284894	1.23618	0	0	-0.0960099	-0.342682	0.718554	0.642305	0.55379	0	0
0.63	-0.865953	1.4273	-0.651679	0.92124	0.694328	0.948991	0.120305	0.146029	-0.250851	0.21458	-0.0103397	0	0	0.0963583	-0.221624	0.000723162	1.24892	-0.283857	0	0	-0.148755	0.146294	-0.165744	-0.277024	-0.0688678	-0.661098	0.281123	1.22869	0	0	-0.0939493	-0.340456	0.715087	0.642429	0.55517	0	0
0.64	-0.828033	1.42871	-0.695649	0.919412	0.685796	0.950779	0.102039	0.145217	-0.241796	0.206976	-0.00920482	0	0	0.119228	-0.21388	0.00613679	1.28032	-0.259358	0	0	-0.154546	0.140921	-0.158143	-0.275976	-0.0680917	-0.662805	0.278305	1.22305	0	0	-0.0925288	-0.338649	0.709569	0.644687	0.558296	0	0
0.65	-0.788799	1.43078	-0.741681	0.917566	0.677451	0.952516	0.0843627	0.14348	-0.232577	0.198825	-0.00830095	0	0	0.141685	-0.204794	0.0100162	1.30692	-0.233566	0	0	-0.160076	0.134816	-0.150347	-0.273799	-0.0675696	-0.665588	0.273489	1.21847	0	0	-0.091355	-0.336844	0.703288	0.647417	0.561838	0	0
0.66	-0.755203	1.43373	-0.782983	0.91567	0.669259	0.954043	0.0685404	0.14151	-0.222989	0.190844	-0.00670594	0	0	0.164945	-0.195932	0.0116519	1.32874	-0.210836	0	0	-0.16423	0.12868	-0.14187	-0.272113	-0.0670694	-0.669465	0.269632	1.21542	0	0	-0.0900687	-0.334737	0.697525	0.64964	0.564938	0	0
0.67	-0.722826	1.43702	-0.824241	0.913711	0.661183	0.955441	0.0536472	0.139357	-0.212828	0.18304	-0.00492091	0	0	0.187836	-0.187635	0.0108153	1.34548	-0.193018	0	0	-0.167902	0.122521	-0.132344	-0.272211	-0.0663145	-0.671719	0.270055	1.21403	0	0	-0.0884489	-0.332491	0.69293	0.651185	0.567244	0	0
0.68	-0.688101	1.43997	-0.869127	0.911674	0.653161	0.956784	0.0384513	0.13714	-0.201734	0.174751	-0.00404842	0	0	0.209161	-0.180293	0.00758709	1.35707	-0.179342	0	0	-0.171972	0.1164	-0.121801	-0.273551	-0.0654807	-0.671675	0.273972	1.21254	0	0	-0.0865444	-0.330177	0.689558	0.651916	0.568955	0	0
0.69	-0.650712	1.44221	-0.917912	0.909536	0.645183	0.958088	0.0226495	0.134959	-0.189904	0.166155	-0.0040278	0	0	0.228559	-0.174321	0.00207065	1.36364	-0.169889	0	0	-0.17673	0.110386	-0.110485	-0.274746	-0.0648171	-0.671214	0.278916	1.21047	0	0	-0.0849879	-0.328213	0.686463	0.653204	0.5701	0	0
0.7	-0.607293	1.4434	-0.973012	0.907445	0.637363	0.959394	0.00586345	0.132276	-0.177755	0.157334	-0.00459033	0	0	0.245779	-0.168851	-0.00461878	1.36537	-0.163597	0	0	-0.182941	0.104305	-0.0992506	-0.275161	-0.0643787	-0.669543	0.284273	1.20742	0	0	-0.0832464	-0.326405	0.683161	0.654723	0.571554	0	0
0.71	-0.560001	1.4437	-1.03154	0.90544	0.629661	0.960645	-0.0110499	0.128853	-0.167433	0.149495	-0.00458039	0	0	0.261299	-0.163547	-0.0113777	1.3627	-0.158835	0	0	-0.189956	0.0981661	-0.0888988	-0.275168	-0.0641465	-0.666015	0.290187	1.20405	0	0	-0.0809409	-0.324616	0.681161	0.655108	0.572829	0	0
0.72	-0.508845	1.44299	-1.09471	0.903376	0.622004	0.961858	-0.0284607	0.124766	-0.15593	0.142364	-0.00417803	0	0	0.274214	-0.15846	-0.019331	1.35545	-0.153891	0	0	-0.197676	0.0914843	-0.0784092	-0.274859	-0.0640311	-0.660281	0.296681	1.19969	0	0	-0.0788344	-0.323114	0.679432	0.655421	0.574011	0	0
0.73	-0.458162	1.44165	-1.15774	0.901298	0.614363	0.963004	-0.0457702	0.120275	-0.144141	0.13573	-0.00373497	0	0	0.285181	-0.15342	-0.0277762	1.34379	-0.14784	0	0	-0.205592	0.0845772	-0.0684734	-0.273589	-0.0643419	-0.653025	0.302373	1.19468	0	0	-0.077342	-0.321883	0.677502	0.655896	0.575176	0	0
0.74	-0.407723	1.43951	-1.22067	0.899209	0.606735	0.96412	-0.0636075	0.115522	-0.131729	0.128696	-0.00372043	0	0	0.293909	-0.148831	-0.0372745	1.32766	-0.138842	0	0	-0.213914	0.0774222	-0.059117	-0.271634	-0.0650131	-0.642958	0.30777	1.18763	0	0	-0.0762048	-0.320702	0.675129	0.655979	0.576952	0	0
0.75	-0.363736	1.43737	-1.27626	0.897234	0.599195	0.965094	-0.0799383	0.110784	-0.121107	0.123086	-0.00292945	0	0	0.302404	-0.145041	-0.0466537	1.30816	-0.128081	0	0	-0.221562	0.0707675	-0.0511681	-0.268444	-0.0660332	-0.632384	0.311818	1.17894	0	0	-0.0749191	-0.319355	0.673317	0.655073	0.579277	0	0
0.76	-0.324443	1.43518	-1.32671	0.89534	0.591677	0.965946	-0.095441	0.105929	-0.111091	0.118543	-0.000935399	0	0	0.309846	-0.141658	-0.0562806	1.28487	-0.115407	0	0	-0.228599	0.0643739	-0.0439609	-0.264688	-0.0671437	-0.621912	0.315689	1.16959	0	0	-0.0733884	-0.317751	0.67247	0.652961	0.582475	0	0
0.77	-0.291238	1.43263	-1.37059	0.893499	0.584129	0.966699	-0.111111	0.101559	-0.101233	0.11359	0.00148223	0	0	0.315759	-0.139116	-0.0662494	1.25772	-0.101305	0	0	-0.235191	0.0585183	-0.037646	-0.26039	-0.0683506	-0.611336	0.319051	1.15984	0	0	-0.0723897	-0.316318	0.671664	0.651095	0.586392	0	0
0.78	-0.263235	1.42995	-1.40855	0.891746	0.576562	0.967341	-0.126935	0.0975952	-0.0917171	0.108142	0.00424671	0	0	0.320342	-0.137268	-0.0767194	1.2269	-0.0877456	0	0	-0.241339	0.053257	-0.0324758	-0.255875	-0.0696655	-0.599186	0.322426	1.1506	0	0	-0.0719182	-0.315099	0.671346	0.648883	0.588885	0	0
0.79	-0.239625	1.42704	-1.4406	0.890211	0.569073	0.967884	-0.142705	0.0939501	-0.0836648	0.102502	0.0070013	0	0	0.323902	-0.135529	-0.0863704	1.19273	-0.0755336	0	0	-0.247689	0.0488124	-0.028766	-0.25055	-0.0709885	-0.586575	0.324971	1.14183	0	0	-0.0710005	-0.314225	0.673098	0.646906	0.591205	0	0
0.8	-0.220372	1.42428	-1.46787	0.888751	0.561642	0.968304	-0.157957	0.0905656	-0.07577	0.0969006	0.00959577	0	0	0.32621	-0.134245	-0.0966352	1.1548	-0.0649887	0	0	-0.253846	0.044899	-0.0253541	-0.24442	-0.0721931	-0.575478	0.326685	1.13329	0	0	-0.0698337	-0.313608	0.675668	0.645263	0.59259	0	0
